<svg id="Layer_1" data-name="Layer 1" xmlns="http://www.w3.org/2000/svg" viewBox="0 0 535.29 107.59"><defs><style>.cls-1{fill:#ed1c24;}</style></defs><path class="cls-1" d="M40.68,368.42l17.8,0q-.12,51.28-.22,102.57c-7,1.56-10.56,2.37-17.58,4Zm8.09,43.3c7.63-.73,11.45-1.08,19.1-1.76a10.43,10.43,0,0,0,4-1.14,6.53,6.53,0,0,0,2.6-2.47,7.22,7.22,0,0,0,.89-3.58c0-4.4,0-6.61,0-11a7.92,7.92,0,0,0-.86-3.84A5.48,5.48,0,0,0,72,385.52a8.74,8.74,0,0,0-4-.71c-7.67.27-11.5.42-19.16.72l0-17.13,18.09,0a38.14,38.14,0,0,1,14.74,2.56,20,20,0,0,1,9.3,7.39,20.44,20.44,0,0,1,3.16,11.63L94,401.09a23.42,23.42,0,0,1-3.28,12.32,24.28,24.28,0,0,1-9.37,8.69,40.48,40.48,0,0,1-14.66,4.44c-7.19.89-10.79,1.35-18,2.31C48.76,422,48.76,418.57,48.77,411.72Zm14.68,12.09c6.62-2.06,9.93-3.06,16.56-5q8.11,22.23,16.66,44.32c-7.75,1.44-11.61,2.19-19.34,3.76Q70.27,445.39,63.45,423.81Z" transform="translate(-40.68 -367.39)"/><path class="cls-1" d="M115.32,368.34l18.17,0L132.8,457c-7.25,1.11-10.87,1.69-18.11,2.92Zm8.06,0,39.26-.05c0,5.63-.07,8.45-.12,14.09q-19.62.43-39.25,1C123.31,377.34,123.34,374.33,123.38,368.32Zm-.28,37.94Q140.89,405,158.68,404c-.05,5.64-.07,8.46-.12,14.11q-17.79,1.37-35.57,3.07C123,415.24,123.06,412.24,123.1,406.26Zm-.27,37.31q19.58-2.65,39.22-4.74l-.12,14.09q-19.65,2.5-39.21,5.68Z" transform="translate(-40.68 -367.39)"/><path class="cls-1" d="M178.91,368.25l14.28,0q12.12,26.44,24.69,52.66l-2,2.23.39-54.91h16.55l-.48,77.87c-5.8.38-8.7.59-14.5,1q-12.42-24.3-24.44-48.8l1.92-2.3-.42,53.13c-6.67.66-10,1-16.67,1.76Q178.58,409.58,178.91,368.25Z" transform="translate(-40.68 -367.39)"/><path class="cls-1" d="M251.29,368.19l53.33,0c0,4.94,0,7.41,0,12.35q-26.69,0-53.38.25C251.26,375.73,251.27,373.22,251.29,368.19Zm17.56,6.38c7.27,0,10.91,0,18.18-.05q-.07,34.65-.14,69.31c-7.31.13-11,.23-18.28.48Z" transform="translate(-40.68 -367.39)"/><path class="cls-1" d="M333.86,368.17H346.6q13,38.58,25.83,77.22c-7.24-.4-10.87-.57-18.12-.86q-7-25.11-14-50.21-6.82,24.74-13.73,49.44c-7.25-.11-10.88-.14-18.14-.14Q321.22,405.92,333.86,368.17ZM325.81,420q14.56.14,29.14.56L355,432.7q-14.58-.52-29.17-.69C325.82,427.19,325.82,424.77,325.81,420Z" transform="translate(-40.68 -367.39)"/><path class="cls-1" d="M393.28,445.21a21.42,21.42,0,0,1-8.84-7.38A19.44,19.44,0,0,1,381.32,427l-.24-39.78a18.37,18.37,0,0,1,3-10.68,18.89,18.89,0,0,1,8.71-6.76,36.21,36.21,0,0,1,13.76-2.35,35.48,35.48,0,0,1,13.82,2.42,18.85,18.85,0,0,1,8.81,7.17,21,21,0,0,1,3.1,11.36l.05,6.61c-7.36-.27-11-.39-18.4-.62l-.05-6.46a7.53,7.53,0,0,0-.83-3.55,5.56,5.56,0,0,0-2.47-2.32,9,9,0,0,0-3.93-.86,8.79,8.79,0,0,0-3.81.71,5.26,5.26,0,0,0-2.44,2.19,6.83,6.83,0,0,0-.81,3.47l.28,40.45a7.08,7.08,0,0,0,.87,3.51,6.17,6.17,0,0,0,2.48,2.37,9.48,9.48,0,0,0,3.82,1,9,9,0,0,0,4-.48,4.68,4.68,0,0,0,2.4-2.05,6.82,6.82,0,0,0,.78-3.5c0-2.59,0-3.88,0-6.46,7.37.46,11.05.71,18.42,1.25l.05,6.6a19,19,0,0,1-2.92,11,16,16,0,0,1-8.72,6.26,35,35,0,0,1-13.84,1.14A39.9,39.9,0,0,1,393.28,445.21Z" transform="translate(-40.68 -367.39)"/><path class="cls-1" d="M466.46,368.28l12.75,0q13.53,46,26,92.19c-7.17-1.23-10.76-1.83-17.95-2.95q-7-29.64-14.21-59.21-6.56,27.65-13.31,55.24c-7.21-.95-10.81-1.39-18-2.23Q454.48,409.93,466.46,368.28Zm-7.64,58.36q14.51,1.29,29,2.87c.05,5.7.07,8.56.11,14.26q-14.46-1.93-29-3.54C458.89,434.8,458.86,432.08,458.82,426.64Z" transform="translate(-40.68 -367.39)"/><path class="cls-1" d="M519.43,368.3l17.8,0,.42,98.22c-7.06-1.42-10.6-2.11-17.67-3.42Q519.71,415.73,519.43,368.3Zm8.33,39.88c7.66.62,11.48.94,19.13,1.61a9.1,9.1,0,0,0,4-.43,5.05,5.05,0,0,0,2.59-2.08,6.58,6.58,0,0,0,.86-3.53c0-4.53,0-6.79,0-11.32a8.8,8.8,0,0,0-.88-4,6.23,6.23,0,0,0-2.61-2.65,9,9,0,0,0-4.06-1c-7.66-.28-11.49-.41-19.16-.66,0-6.3,0-9.46-.08-15.76l18.09,0a35.91,35.91,0,0,1,14.76,2.76,20.23,20.23,0,0,1,9.34,8.24A25.36,25.36,0,0,1,573,392.42c0,4.95,0,7.43,0,12.37,0,5.2-1.07,9.55-3.2,13a16.89,16.89,0,0,1-9.3,7.25c-4.07,1.39-9,1.69-14.63,1-7.2-.87-10.8-1.29-18-2.1C527.81,417.64,527.8,414.49,527.76,408.18Zm14.8,14.4c6.61-.51,9.92-.77,16.53-1.31Q567.79,448.06,576,475c-7.69-1.83-11.54-2.71-19.24-4.4Q549.82,446.53,542.56,422.58Z" transform="translate(-40.68 -367.39)"/></svg>